<?xml version="1.0" encoding="iso-8859-1"?>
<!-- Generator: Adobe Illustrator 19.0.0, SVG Export Plug-In . SVG Version: 6.00 Build 0)  -->
<svg version="1.1" id="Layer_1" xmlns="http://www.w3.org/2000/svg" xmlns:xlink="http://www.w3.org/1999/xlink" x="0px" y="0px"
	 viewBox="0 0 512 512" style="enable-background:new 0 0 512 512;" xml:space="preserve">
<rect x="91.51" y="170.66" style="fill:#DA4453;" width="324.48" height="21.344"/>
<path style="fill:#ED5565;" d="M255.988,0c-5.875,0-10.664,4.781-10.664,10.672v387.531h21.352V10.656
	C266.676,4.766,261.895,0,255.988,0z"/>
<path style="fill:#DA4453;" d="M255.988,385.328c-34.977,0-63.32,28.359-63.32,63.328c0,34.984,28.344,63.344,63.32,63.344
	c35,0,63.344-28.359,63.344-63.344C319.332,413.688,290.988,385.328,255.988,385.328z M255.988,490.656
	c-23.148,0-41.992-18.828-41.992-42c0-23.156,18.844-42,41.992-42c23.156,0,42,18.844,42,42
	C297.988,471.828,279.145,490.656,255.988,490.656z"/>
<path style="fill:#ED5565;" d="M479.988,341.328h-53.312v-320h53.312c5.906,0,10.688-4.781,10.688-10.672S485.895,0,479.988,0h-64
	c-5.875,0-10.656,4.766-10.656,10.656V352c0,5.891,4.781,10.656,10.656,10.656h64c5.906,0,10.688-4.766,10.688-10.656
	S485.895,341.328,479.988,341.328z"/>
<path style="fill:#DA4453;" d="M106.668,10.656C106.668,4.766,101.887,0,95.996,0l0,0l0,0h-64c-5.891,0-10.672,4.766-10.672,10.656
	s4.781,10.672,10.672,10.672h53.328v320H31.996c-5.891,0-10.672,4.781-10.672,10.672s4.781,10.656,10.672,10.656h64
	c5.891,0,10.672-4.766,10.672-10.656V10.672C106.668,10.672,106.668,10.672,106.668,10.656z"/>
<g>
</g>
<g>
</g>
<g>
</g>
<g>
</g>
<g>
</g>
<g>
</g>
<g>
</g>
<g>
</g>
<g>
</g>
<g>
</g>
<g>
</g>
<g>
</g>
<g>
</g>
<g>
</g>
<g>
</g>
</svg>
